<?xml version="1.0" encoding="utf-8"?>
<!-- Generator: Adobe Illustrator 22.1.0, SVG Export Plug-In . SVG Version: 6.00 Build 0)  -->
<svg version="1.1" id="Layer_1" xmlns="http://www.w3.org/2000/svg" xmlns:xlink="http://www.w3.org/1999/xlink" x="0px" y="0px"
	 viewBox="0 0 66 41" style="enable-background:new 0 0 66 41;" xml:space="preserve">
<style type="text/css">
	.st0{opacity:0.5;fill:url(#SVGID_1_);}
	.st1{opacity:0.75;fill:url(#SVGID_2_);}
	.st2{fill:url(#SVGID_3_);}
</style>
<linearGradient id="SVGID_1_" gradientUnits="userSpaceOnUse" x1="7.1709" y1="20.8655" x2="61" y2="20.8655">
	<stop  offset="0" style="stop-color:#333333"/>
	<stop  offset="1" style="stop-color:#404040"/>
</linearGradient>
<path class="st0" d="M45.5,39.3c-5.3,0-9.4-1.7-12-5c-0.2-0.3-0.5-0.6-0.7-1c-0.3,0.3-0.6,0.6-0.9,0.9c-3.5,3.1-8.3,4.7-14.2,4.7
	H7.2V38h10.6c5.7,0,10.2-1.5,13.6-4.5c0.4-0.4,0.8-0.8,1.2-1.2l0.4-0.4l0.3,0.5c0.3,0.5,0.6,0.9,0.9,1.3c2.5,3.1,6.3,4.7,11.4,4.7
	c3.4,0,6.3-0.4,8.7-1.3l0.6-0.2l0.6-5.5L54,31.8c-2.9,0.8-5.4,1.2-7.5,1.2c-3.3,0-5.7-1-7.2-3c-1.6-2.1-2.1-5.1-1.7-9
	c0.4-3.8,1.7-6.9,3.8-9c2.1-2.2,4.7-3.2,8-3.2c2.3,0,4.5,0.5,6.7,1.6l0.9,0.4l3-5l-1-0.5c-2.5-1.3-5.6-2-9.1-2c-3.3,0-6.4,0.7-9,2.2
	c-1.9,1-3.6,2.4-4.9,4.1l-0.4,0.4l-0.3-0.5c-0.3-0.4-0.6-0.9-1-1.2c-2.7-3-6.7-4.5-12-4.5H10.9V2.9h11.2c5.5,0,9.8,1.6,12.7,4.8
	c0.2,0.3,0.5,0.6,0.7,0.9c1.4-1.6,3-2.9,4.8-3.9c2.8-1.5,5.9-2.3,9.4-2.3c3.7,0,6.9,0.7,9.5,2.1L61,5.4l-3.9,6.5l-1.6-0.8
	c-2-1-4.2-1.5-6.3-1.5c-3,0-5.4,1-7.4,3c-2,2-3.2,4.9-3.6,8.5c-0.4,3.7,0.1,6.5,1.6,8.4c1.4,1.8,3.5,2.7,6.5,2.7
	c2.1,0,4.5-0.4,7.3-1.1l2.7-0.7l-0.8,7.3L54.6,38C52,38.9,49,39.3,45.5,39.3z"/>
<linearGradient id="SVGID_2_" gradientUnits="userSpaceOnUse" x1="4.4365" y1="20.8655" x2="58.735" y2="20.8655">
	<stop  offset="0" style="stop-color:#333333"/>
	<stop  offset="1" style="stop-color:#404040"/>
</linearGradient>
<path class="st1" d="M43.3,39.3c-5.3,0-9.4-1.7-12-5c-0.2-0.3-0.5-0.6-0.7-1c-0.3,0.3-0.6,0.6-0.9,0.9c-3.5,3.1-8.3,4.7-14.2,4.7
	h-11l3.8-36h11.6c5.5,0,9.8,1.6,12.7,4.8c0.2,0.3,0.5,0.6,0.7,0.9c1.4-1.6,3-2.9,4.8-3.9c2.8-1.5,5.9-2.3,9.4-2.3
	c3.7,0,6.9,0.7,9.5,2.1l1.8,0.9l-3.9,6.5l-1.6-0.8c-2-1-4.2-1.5-6.3-1.5c-3,0-5.4,1-7.4,3c-2,2-3.2,4.9-3.6,8.5
	c-0.4,3.7,0.1,6.5,1.6,8.4c1.4,1.8,3.5,2.7,6.5,2.7c2.1,0,4.5-0.4,7.3-1.1l2.7-0.7l-0.8,7.3L52.3,38C49.8,38.9,46.7,39.3,43.3,39.3z
	 M30.7,31.9l0.3,0.5c0.3,0.5,0.6,0.9,0.9,1.3c2.5,3.1,6.3,4.7,11.4,4.7c3.4,0,6.3-0.4,8.7-1.3l0.6-0.2l0.6-5.5l-1.5,0.4
	c-2.9,0.8-5.4,1.2-7.5,1.2c-3.3,0-5.7-1-7.2-3c-1.6-2.1-2.1-5.1-1.7-9c0.4-3.8,1.7-6.9,3.8-9v0c2.1-2.2,4.7-3.2,8-3.2
	c2.3,0,4.5,0.5,6.7,1.6l0.9,0.4l3-5l-1-0.5c-2.5-1.3-5.6-2-9.1-2c-3.3,0-6.4,0.7-9,2.2c-1.9,1-3.6,2.4-4.9,4.1l-0.4,0.4l-0.3-0.5
	c-0.3-0.4-0.6-0.9-1-1.2c-2.7-3-6.7-4.5-12-4.5H9L5.4,38h10.1c5.7,0,10.2-1.5,13.6-4.5c0.4-0.4,0.8-0.8,1.2-1.2L30.7,31.9z
	 M14.1,32.7h-3.4l2.5-23.6h4.5c3.8,0,6.6,1,8.2,2.8c1.7,1.9,2.3,4.8,1.9,8.7l0,0c-0.4,4-1.8,7-4,9C21.5,31.6,18.2,32.7,14.1,32.7z
	 M11.6,31.8h2.4c4,0,7-0.9,9.1-2.8c2.1-1.9,3.4-4.7,3.8-8.5c0.4-3.6-0.2-6.3-1.7-8c-1.5-1.7-4.1-2.5-7.6-2.5h-3.7L11.6,31.8z"/>
<g>
	
		<image style="overflow:visible;opacity:0.25;" width="81" height="65" xlink:href="FC67A341.png"  transform="matrix(1 0 0 1 -10 -12)">
	</image>
	<g>
		<linearGradient id="SVGID_3_" gradientUnits="userSpaceOnUse" x1="5.1724" y1="20.8655" x2="55.6094" y2="20.8655">
			<stop  offset="0" style="stop-color:#333333"/>
			<stop  offset="1" style="stop-color:#404040"/>
		</linearGradient>
		<path class="st2" d="M37.8,12.7c1.9-2,4.3-2.9,7.3-2.9c2.1,0,4.1,0.5,6.1,1.5l1.2,0.6l3.3-5.5l-1.3-0.7c-2.5-1.3-5.4-1.9-8.8-1.9
			c-3.2,0-6.2,0.7-8.7,2.1c-1.9,1-3.5,2.3-4.8,4C31.6,9.4,31.3,9,31,8.6c-2.6-2.9-6.6-4.4-11.7-4.4H8.7L5.2,37.5h10
			c5.5,0,9.9-1.5,13.2-4.3c0.4-0.4,0.8-0.8,1.2-1.2c0.3,0.5,0.6,0.9,0.9,1.3c2.4,3.1,6.2,4.6,11.1,4.6c3.2,0,6.1-0.4,8.4-1.3
			l0.8-0.3l0.6-6l-2,0.5c-2.7,0.7-5,1.1-7,1.1c-3,0-5.2-0.9-6.5-2.7v0c-1.4-1.9-1.9-4.6-1.6-8.2C34.7,17.5,35.8,14.7,37.8,12.7z
			 M27.5,20.6c-0.4,3.7-1.6,6.5-3.7,8.3c-2.1,1.8-5.1,2.8-8.9,2.8h-2.7l2.3-21.5h3.9c3.5,0,6,0.9,7.5,2.5
			C27.3,14.4,27.9,17,27.5,20.6z"/>
	</g>
</g>
</svg>
